<svg id="Layer_1" data-name="Layer 1" xmlns="http://www.w3.org/2000/svg" viewBox="0 0 720 720"><defs><style>.cls-1{fill:#5051db}.cls-2{fill:#2b2ba0}.cls-3{fill:#000d47}.cls-4{fill:#a15fff}.cls-5{fill:#37c2d9}.cls-16,.cls-6{fill:#6179ff}.cls-7{fill:#021151}.cls-14,.cls-17,.cls-20,.cls-30,.cls-8,.cls-9{fill:none}.cls-8{stroke:#fff}.cls-14,.cls-16,.cls-17,.cls-18,.cls-20,.cls-30,.cls-31,.cls-8,.cls-9{stroke-miterlimit:10}.cls-9{stroke:#a6bbf4}.cls-10{fill:#a6bbf4}.cls-15{fill:#fff}.cls-14{stroke:#021151}.cls-16,.cls-17{stroke:#6179ff}.cls-16,.cls-18{stroke-width:2px}.cls-18,.cls-21{fill:#ffc264}.cls-18{stroke:#ffc264}.cls-19{fill:#7426ef}.cls-20{stroke:#547bf1}.cls-31{stroke:#ff5a60}.cls-27{fill:#d5bff7}.cls-28{fill:#547bf1}.cls-29,.cls-31{fill:#ff5a60}.cls-30{stroke:#5051db}</style></defs><path class="cls-1" d="M0 0h720v720H0z"/><path class="cls-2" d="M0 420h240v300H0z"/><path class="cls-3" d="M0 540h720v180H0z"/><path class="cls-4" d="M480 540h240v180H480z"/><path class="cls-2" d="M0 0h720v300H0z"/><path class="cls-5" d="M0 0h240v180H0z"/><path class="cls-3" d="M240 0h480v180H240z"/><path class="cls-2" d="M240 540h240v180H240z"/><path class="cls-6" d="M296.11 652.8h116v31.97h-116zm0-42.33h116v31.97h-116zm0-42.33h116v31.97h-116z"/><path class="cls-7" d="M305.3 600.11h97.63v10.36H305.3zm0 42.33h97.63v10.36H305.3zm0 42.33h97.63v10.36H305.3z"/><circle class="cls-8" cx="399.52" cy="584.13" r="2.78"/><circle class="cls-8" cx="399.52" cy="626.46" r="2.78"/><circle class="cls-8" cx="399.52" cy="668.79" r="2.78"/><path class="cls-9" d="M412.11 584.13h11a4 4 0 0 1 4 4v34.33a4 4 0 0 1-4 4h-11m-116 42.33h-11a4 4 0 0 1-4-4v-34.33a4 4 0 0 1 4-4h11"/><circle class="cls-10" cx="427.1" cy="599.4" r="1.71"/><circle cx="427.1" cy="612.18" r="1.71" fill="#fff" stroke="#a6bbf4" stroke-miterlimit="10"/><path class="cls-10" d="M279.41 638.54h3.41v3.41h-3.41z"/><path stroke-linejoin="round" fill="#fff" stroke="#a6bbf4" d="M279.48 652.8h3.13v3.13h-3.13z"/><path d="M315.83 586.84h1.72v1.72h-1.72zm0-4.59h1.72v1.72h-1.72zm4.6 4.59h1.72v1.72h-1.72zm0-4.59h1.72v1.72h-1.72zm4.59 4.59h1.72v1.72h-1.72zm0-4.59h1.72v1.72h-1.72zm-18.31 4.59h1.72v1.72h-1.72zm0-4.59h1.72v1.72h-1.72zm4.6 4.59h1.72v1.72h-1.72zm0-4.59h1.72v1.72h-1.72zm18.3 4.59h1.72v1.72h-1.72zm0-4.59h1.72v1.72h-1.72zm4.6 4.59h1.72v1.72h-1.72zm-18.38 84.9h1.72v1.72h-1.72zm0-4.59h1.72v1.72h-1.72zm4.6 4.59h1.72v1.72h-1.72zm0-4.59h1.72v1.72h-1.72zm4.59 4.59h1.72v1.72h-1.72zm0-4.59h1.72v1.72h-1.72zm-18.31 4.59h1.72v1.72h-1.72zm0-4.59h1.72v1.72h-1.72zm4.6 4.59h1.72v1.72h-1.72zm0-4.59h1.72v1.72h-1.72zm18.3 4.59h1.72v1.72h-1.72zm0-4.59h1.72v1.72h-1.72zm4.6 4.59h1.72v1.72h-1.72zm-18.38-42.33h1.72v1.72h-1.72zm0-4.59h1.72v1.72h-1.72zm4.6 4.59h1.72v1.72h-1.72zm0-4.59h1.72v1.72h-1.72zm4.59 4.59h1.72v1.72h-1.72zm0-4.59h1.72v1.72h-1.72zm-18.31 4.59h1.72v1.72h-1.72zm0-4.59h1.72v1.72h-1.72zm4.6 4.59h1.72v1.72h-1.72zm0-4.59h1.72v1.72h-1.72zm18.3 4.59h1.72v1.72h-1.72zm0-4.59h1.72v1.72h-1.72zm4.6 4.59h1.72v1.72h-1.72z" fill="#2e3192"/><path class="cls-8" d="M388 583.76h-29m29 42.7h-29m29 42.33h-29"/><rect class="cls-14" x="636.05" y="335.47" width="9.08" height="49.95" rx="4.54" ry="4.54"/><rect class="cls-6" x="654.67" y="335.47" width="9.08" height="49.95" rx="4.54" ry="4.54"/><rect class="cls-6" x="672.83" y="335.47" width="9.08" height="49.95" rx="4.54" ry="4.54"/><circle class="cls-15" cx="640.52" cy="369.57" r="6.81"/><circle class="cls-14" cx="677.37" cy="364.35" r="6.81"/><circle class="cls-14" cx="659.21" cy="353.64" r="6.81"/><path class="cls-14" d="M718.65 217.54H352.21m366.44 5.25H352.21m366.44-10.75H352.21m366.44-6.01H352.21m0-5.03h366.44"/><circle class="cls-16" cx="390" cy="20.83" r="3.06"/><circle class="cls-16" cx="444" cy="61.83" r="3.06"/><circle class="cls-16" cx="390" cy="161.18" r="3.06"/><circle class="cls-16" cx="464.67" cy="165.16" r="3.06"/><circle class="cls-16" cx="484" cy="94.16" r="3.06"/><path class="cls-17" d="M327.13 106.5h131.54a6 6 0 0 1 6 6v52.67M444 61.83v44.67m-6.66 0v19.83M414 179.85V142.5m0-142v28.66a6 6 0 0 0 6 6h52.67M390 20.83h24m-24 140.35h24M512.67.77v59.06m31-35h-31M484.33 94.5h51.47a6 6 0 0 1 6 6v79.68m-18.29-57.98h18.26m24.23-7.37h-24.33m85-114.06v34.39H677"/><path class="cls-17" d="M607.34 27.5h19.33v22.33a6 6 0 0 1-6 6h-53"/><path class="cls-17" d="M593 .77v55.06h14.67v25.16"/><circle class="cls-18" cx="566.01" cy="115.08" r="3.05"/><path class="cls-17" d="M382.67 53.77h-51.46a6 6 0 0 1-6-6V.11M301 33.43h24.34m27.55 44.39V53.48"/><circle class="cls-16" cx="352.64" cy="77.83" r="3.05"/><circle class="cls-18" cx="512.84" cy="59.83" r="3.06"/><circle class="cls-16" cx="543.67" cy="24.83" r="3.06"/><circle class="cls-16" cx="607.67" cy="80.99" r="3.06"/><circle class="cls-16" cx="607.67" cy="28.6" r="3.06"/><circle class="cls-18" cx="677" cy="35.16" r="3.06"/><circle class="cls-18" cx="383" cy="54.1" r="3.06"/><circle class="cls-18" cx="414" cy="142.5" r="3.06"/><path class="cls-19" d="M600 180A120 120 0 0 1 720 60v120z"/><path class="cls-3" d="M240 180H120A120 120 0 0 0 0 300h240a120 120 0 0 0 120-120z"/><path class="cls-2" d="M240 60a120 120 0 0 1 120 120H240z"/><path class="cls-6" d="M120 300H0v120h240a120 120 0 0 0-120-120z"/><path class="cls-19" d="M600 540H480v120h120a120 120 0 0 0 120-120z"/><path class="cls-6" d="M600 420H480a120 120 0 0 0 120 120h120V420z"/><circle class="cls-5" cx="154.19" cy="216.73" r="6.16"/><circle class="cls-10" cx="179.41" cy="240.05" r="6.16"/><circle class="cls-20" cx="154.19" cy="263.53" r="6.16"/><path class="cls-20" transform="rotate(45 179.406 216.733)" d="M174.34 211.66h10.14v10.14h-10.14z"/><path class="cls-5" transform="rotate(45 204.785 263.525)" d="M199.71 258.46h10.14v10.14h-10.14z"/><path class="cls-10" d="M199.42 211.37h10.72v10.72h-10.72z"/><path class="cls-21" d="M174.05 258.17h10.72v10.72h-10.72z"/><path stroke="#ff5a60" stroke-miterlimit="10" fill="none" d="M199.42 233.55h10.72v10.72h-10.72z"/><path class="cls-9" d="M149.07 234.9l10.33 10.33m0-10.33l-10.33 10.33"/><path class="cls-15" transform="rotate(-90 540 321.17)" d="M441.33 261.25h197.35v119.84H441.33z"/><path class="cls-5" transform="rotate(-90 540 314.05)" d="M465.55 254.13h148.9v119.84h-148.9z"/><circle cx="539.6" cy="403.34" r="9.75" stroke="#39c1d8" stroke-miterlimit="10" fill="none"/><circle class="cls-5" cx="530.3" cy="231.74" r="1.78"/><rect class="cls-5" x="542.1" y="223.99" width="2.13" height="15.51" rx="1.06" ry="1.06" transform="rotate(-90 543.16 231.74)"/><path class="cls-15" transform="rotate(-90 495.17 372.09)" d="M494.17 371.08h2.01v2.01h-2.01z"/><path class="cls-15" transform="rotate(-90 495.175 366.725)" d="M494.17 365.72h2.01v2.01h-2.01z"/><path class="cls-15" transform="rotate(-90 495.175 361.355)" d="M494.17 360.35h2.01v2.01h-2.01z"/><path class="cls-15" transform="rotate(-90 495.17 355.99)" d="M494.17 354.98h2.01v2.01h-2.01z"/><path class="cls-15" transform="rotate(-90 495.175 350.625)" d="M494.17 349.62h2.01v2.01h-2.01z"/><path class="cls-15" transform="rotate(-90 500.54 372.09)" d="M499.53 371.08h2.01v2.01h-2.01z"/><path class="cls-15" transform="rotate(-90 500.54 366.72)" d="M499.53 365.72h2.01v2.01h-2.01z"/><path class="cls-15" transform="rotate(-90 500.54 361.36)" d="M499.53 360.35h2.01v2.01h-2.01z"/><path class="cls-15" transform="rotate(-90 500.54 355.99)" d="M499.53 354.98h2.01v2.01h-2.01z"/><path class="cls-15" transform="rotate(-90 505.91 372.09)" d="M504.9 371.08h2.01v2.01h-2.01z"/><path class="cls-15" transform="rotate(-90 505.905 366.725)" d="M504.9 365.72h2.01v2.01h-2.01z"/><path class="cls-15" transform="rotate(-90 505.905 361.355)" d="M504.9 360.35h2.01v2.01h-2.01z"/><path class="cls-15" transform="rotate(-90 511.275 372.095)" d="M510.27 371.08h2.01v2.01h-2.01z"/><path class="cls-15" transform="rotate(-90 511.275 366.725)" d="M510.27 365.72h2.01v2.01h-2.01z"/><path class="cls-15" transform="rotate(-90 516.64 372.09)" d="M515.63 371.08h2.01v2.01h-2.01z"/><path fill="#08abbc" d="M480.08 239.59l119.84 119.84V239.59H480.08z"/><path class="cls-8" d="M571.78 308.19h-66.5a6 6 0 0 1-6-6v-43h-79.56a5.77 5.77 0 0 1-5.72-6V180"/><path class="cls-8" d="M574.28 259.19h-61.5v25.5a6 6 0 0 0 6 6h15.5a6 6 0 0 1 6 6v58"/><path class="cls-8" d="M560.45 274.86h-29.33a6 6 0 0 1-6-6v-9.67h-33.84"/><circle class="cls-15" cx="574.28" cy="259.19" r="2.85"/><circle class="cls-15" cx="560.45" cy="274.86" r="2.85"/><circle class="cls-15" cx="571.78" cy="308.19" r="2.85"/><circle class="cls-15" cx="540.19" cy="354.69" r="2.85"/><path class="cls-8" d="M295.98 326.55l29.33-16.09m98.71 16.09l-29.33-16.09m-34.29 50.28V337.4m-40.85 16.01l17.81-24.1m62.98 24.1l-17.81-24.1"/><path class="cls-7" d="M360.4 337.4a37.41 37.41 0 0 0 37.41-37.4H323a37.41 37.41 0 0 0 37.4 37.4z"/><path class="cls-4" d="M360.4 331.24A31.25 31.25 0 0 0 391.65 300h-62.51a31.25 31.25 0 0 0 31.26 31.24z"/><path d="M360.4 320.41A20.43 20.43 0 0 0 380.83 300H340a20.43 20.43 0 0 0 20.4 20.41z" fill="#eaebec"/><circle class="cls-15" cx="360.4" cy="361.63" r="3.38"/><circle class="cls-15" cx="400.82" cy="354.06" r="3.38"/><circle class="cls-15" cx="424.68" cy="326.91" r="3.38"/><circle class="cls-15" cx="295.32" cy="326.91" r="3.38"/><circle class="cls-15" cx="319.07" cy="354.06" r="3.38"/><circle class="cls-2" cx="120.4" cy="421.92" r="60.69"/><circle class="cls-1" cx="120.4" cy="421.92" r="48.91"/><circle class="cls-2" cx="120.4" cy="421.92" r="36.38"/><circle class="cls-1" cx="120.4" cy="421.92" r="24.31"/><circle class="cls-2" cx="120.4" cy="421.92" r="12.46"/><path class="cls-2" d="M0 361.23h120V373H0z"/><path class="cls-1" d="M120.4 459.47h198.17v11.36H120.4z"/><path class="cls-1" transform="rotate(90 77.68 480.5)" d="M18.18 474.5h119v12h-119z"/><circle class="cls-5" cx="133.7" cy="409.24" r="5.82"/><circle class="cls-15" cx="93.54" cy="436.1" r="5.82"/><circle class="cls-6" cx="139.67" cy="370.75" r="5.67"/><circle class="cls-7" cx="204.5" cy="465.15" r="5.82"/><circle class="cls-4" cx="43.71" cy="367.12" r="5.82"/><path class="cls-17" d="M350.44 568.52v-150a19.43 19.43 0 0 1 19.43-19.43h109.69"/><path class="cls-17" d="M345.4 568.52V415a21.59 21.59 0 0 1 21.6-21.6h112.56"/><path class="cls-17" d="M356.15 568.52V420.11A15.11 15.11 0 0 1 371.26 405h108.3"/><path class="cls-17" d="M361.86 568.52V422.27a10.79 10.79 0 0 1 10.79-10.79h106.91"/><path class="cls-17" d="M479.56 416.91H375.12a7.56 7.56 0 0 0-7.56 7.56v144"/><path class="cls-8" d="M277.97 422.15h26.2v88.8h-26.2z"/><path class="cls-15" transform="rotate(45 291.066 439.663)" d="M286.59 435.18h8.96v8.96h-8.96z"/><circle class="cls-8" cx="291.07" cy="459.83" r="3.12"/><circle class="cls-8" cx="291.07" cy="476.94" r="3.12"/><circle class="cls-8" cx="291.07" cy="494.04" r="3.12"/><path class="cls-17" d="M119.56 242.5a58 58 0 0 0-58 58M240 640.25a80 80 0 0 0-80 80m79.56-480.75a60 60 0 0 0 60-60m0 0a60 60 0 0 0-60-60"/><path d="M720 120a60 60 0 0 0-60 60m0 359.25a60 60 0 0 1-60 60H480" stroke="#a15fff" stroke-miterlimit="10" fill="none"/><path class="cls-27" transform="rotate(90 539.01 698.29)" d="M538 697.28h2.01v2.01H538z"/><path class="cls-27" transform="rotate(90 533.64 698.29)" d="M532.63 697.28h2.01v2.01h-2.01z"/><path class="cls-27" transform="rotate(90 528.27 698.29)" d="M527.27 697.28h2.01v2.01h-2.01z"/><path class="cls-27" transform="rotate(90 522.905 698.285)" d="M521.9 697.28h2.01v2.01h-2.01z"/><path class="cls-27" transform="rotate(90 517.54 698.29)" d="M516.53 697.28h2.01v2.01h-2.01z"/><path class="cls-27" transform="rotate(90 539.01 692.92)" d="M538 691.92h2.01v2.01H538z"/><path class="cls-27" transform="rotate(90 533.64 692.92)" d="M532.63 691.92h2.01v2.01h-2.01z"/><path class="cls-27" transform="rotate(90 528.27 692.92)" d="M527.27 691.92h2.01v2.01h-2.01z"/><path class="cls-27" transform="rotate(90 522.905 692.925)" d="M521.9 691.92h2.01v2.01h-2.01z"/><path class="cls-27" transform="rotate(90 517.54 692.92)" d="M516.53 691.92h2.01v2.01h-2.01z"/><path class="cls-27" transform="rotate(90 539.005 687.555)" d="M538 686.55h2.01v2.01H538z"/><path class="cls-27" transform="rotate(90 533.64 687.55)" d="M532.63 686.55h2.01v2.01h-2.01z"/><path class="cls-27" transform="rotate(90 528.275 687.555)" d="M527.27 686.55h2.01v2.01h-2.01z"/><path class="cls-27" transform="rotate(90 522.905 687.555)" d="M521.9 686.55h2.01v2.01h-2.01z"/><path class="cls-27" transform="rotate(90 517.535 687.555)" d="M516.53 686.55h2.01v2.01h-2.01z"/><path class="cls-27" transform="rotate(90 539.005 682.185)" d="M538 681.18h2.01v2.01H538z"/><path class="cls-27" transform="rotate(90 533.64 682.19)" d="M532.63 681.18h2.01v2.01h-2.01z"/><path class="cls-27" transform="rotate(90 528.275 682.185)" d="M527.27 681.18h2.01v2.01h-2.01z"/><path class="cls-27" transform="rotate(90 522.905 682.185)" d="M521.9 681.18h2.01v2.01h-2.01z"/><path class="cls-27" transform="rotate(90 517.54 682.19)" d="M516.53 681.18h2.01v2.01h-2.01z"/><path class="cls-27" transform="rotate(90 512.17 692.92)" d="M511.17 691.92h2.01v2.01h-2.01z"/><path class="cls-27" transform="rotate(90 512.175 687.555)" d="M511.17 686.55h2.01v2.01h-2.01z"/><path class="cls-27" transform="rotate(90 506.805 687.555)" d="M505.8 686.55h2.01v2.01h-2.01z"/><path class="cls-27" transform="rotate(90 512.17 682.19)" d="M511.17 681.18h2.01v2.01h-2.01z"/><path class="cls-27" transform="rotate(90 506.805 682.185)" d="M505.8 681.18h2.01v2.01h-2.01z"/><path class="cls-27" transform="rotate(90 501.44 682.19)" d="M500.43 681.18h2.01v2.01h-2.01z"/><path class="cls-27" transform="rotate(-90 501.44 698.29)" d="M500.43 697.28h2.01v2.01h-2.01z"/><path class="cls-27" transform="rotate(-90 501.44 692.92)" d="M500.43 691.92h2.01v2.01h-2.01z"/><path class="cls-27" transform="rotate(-90 501.435 687.555)" d="M500.43 686.55h2.01v2.01h-2.01z"/><path class="cls-27" transform="rotate(-90 506.805 698.285)" d="M505.8 697.28h2.01v2.01h-2.01z"/><path class="cls-27" transform="rotate(-90 506.805 692.925)" d="M505.8 691.92h2.01v2.01h-2.01z"/><path class="cls-27" transform="rotate(-90 512.17 698.29)" d="M511.17 697.28h2.01v2.01h-2.01z"/><path class="cls-27" transform="rotate(90 576.58 698.29)" d="M575.57 697.28h2.01v2.01h-2.01z"/><path class="cls-27" transform="rotate(90 571.21 698.29)" d="M570.2 697.28h2.01v2.01h-2.01z"/><path class="cls-27" transform="rotate(90 565.84 698.29)" d="M564.84 697.28h2.01v2.01h-2.01z"/><path class="cls-27" transform="rotate(90 560.475 698.285)" d="M559.47 697.28h2.01v2.01h-2.01z"/><path class="cls-27" transform="rotate(90 555.11 698.29)" d="M554.1 697.28h2.01v2.01h-2.01z"/><path class="cls-27" transform="rotate(90 576.575 692.925)" d="M575.57 691.92h2.01v2.01h-2.01z"/><path class="cls-27" transform="rotate(90 571.21 692.92)" d="M570.2 691.92h2.01v2.01h-2.01z"/><path class="cls-27" transform="rotate(90 565.84 692.92)" d="M564.84 691.92h2.01v2.01h-2.01z"/><path class="cls-27" transform="rotate(90 560.475 692.925)" d="M559.47 691.92h2.01v2.01h-2.01z"/><path class="cls-27" transform="rotate(90 555.11 692.92)" d="M554.1 691.92h2.01v2.01h-2.01z"/><path class="cls-27" transform="rotate(90 576.575 687.555)" d="M575.57 686.55h2.01v2.01h-2.01z"/><path class="cls-27" transform="rotate(90 571.205 687.555)" d="M570.2 686.55h2.01v2.01h-2.01z"/><path class="cls-27" transform="rotate(90 565.845 687.555)" d="M564.84 686.55h2.01v2.01h-2.01z"/><path class="cls-27" transform="rotate(90 560.475 687.555)" d="M559.47 686.55h2.01v2.01h-2.01z"/><path class="cls-27" transform="rotate(90 555.105 687.555)" d="M554.1 686.55h2.01v2.01h-2.01z"/><path class="cls-27" transform="rotate(90 576.575 682.185)" d="M575.57 681.18h2.01v2.01h-2.01z"/><path class="cls-27" transform="rotate(90 571.21 682.19)" d="M570.2 681.18h2.01v2.01h-2.01z"/><path class="cls-27" transform="rotate(90 565.84 682.19)" d="M564.84 681.18h2.01v2.01h-2.01z"/><path class="cls-27" transform="rotate(90 560.475 682.185)" d="M559.47 681.18h2.01v2.01h-2.01z"/><path class="cls-27" transform="rotate(90 555.11 682.19)" d="M554.1 681.18h2.01v2.01h-2.01z"/><path class="cls-27" transform="rotate(90 549.74 692.92)" d="M548.74 691.92h2.01v2.01h-2.01z"/><path class="cls-27" transform="rotate(90 549.745 687.555)" d="M548.74 686.55h2.01v2.01h-2.01z"/><path class="cls-27" transform="rotate(90 544.375 687.555)" d="M543.37 686.55h2.01v2.01h-2.01z"/><path class="cls-27" transform="rotate(90 549.74 682.19)" d="M548.74 681.18h2.01v2.01h-2.01z"/><path class="cls-27" transform="rotate(90 544.375 682.185)" d="M543.37 681.18h2.01v2.01h-2.01z"/><path class="cls-27" transform="rotate(90 539.005 682.185)" d="M538 681.18h2.01v2.01H538z"/><path class="cls-27" transform="rotate(-90 539.01 698.29)" d="M538 697.28h2.01v2.01H538z"/><path class="cls-27" transform="rotate(-90 539.01 692.92)" d="M538 691.92h2.01v2.01H538z"/><path class="cls-27" transform="rotate(-90 539.005 687.555)" d="M538 686.55h2.01v2.01H538z"/><path class="cls-27" transform="rotate(-90 544.375 698.285)" d="M543.37 697.28h2.01v2.01h-2.01z"/><path class="cls-27" transform="rotate(-90 544.375 692.925)" d="M543.37 691.92h2.01v2.01h-2.01z"/><path class="cls-27" transform="rotate(-90 549.74 698.29)" d="M548.74 697.28h2.01v2.01h-2.01z"/><path class="cls-27" transform="rotate(90 614.145 698.285)" d="M613.14 697.28h2.01v2.01h-2.01z"/><path class="cls-27" transform="rotate(90 608.78 698.29)" d="M607.77 697.28h2.01v2.01h-2.01z"/><path class="cls-27" transform="rotate(90 603.41 698.29)" d="M602.41 697.28h2.01v2.01h-2.01z"/><path class="cls-27" transform="rotate(90 598.045 698.285)" d="M597.04 697.28h2.01v2.01h-2.01z"/><path class="cls-27" transform="rotate(90 592.68 698.29)" d="M591.67 697.28h2.01v2.01h-2.01z"/><path class="cls-27" transform="rotate(90 614.145 692.925)" d="M613.14 691.92h2.01v2.01h-2.01z"/><path class="cls-27" transform="rotate(90 608.78 692.92)" d="M607.77 691.92h2.01v2.01h-2.01z"/><path class="cls-27" transform="rotate(90 603.41 692.92)" d="M602.41 691.92h2.01v2.01h-2.01z"/><path class="cls-27" transform="rotate(90 598.045 692.925)" d="M597.04 691.92h2.01v2.01h-2.01z"/><path class="cls-27" transform="rotate(90 592.68 692.92)" d="M591.67 691.92h2.01v2.01h-2.01z"/><path class="cls-27" transform="rotate(90 614.145 687.555)" d="M613.14 686.55h2.01v2.01h-2.01z"/><path class="cls-27" transform="rotate(90 608.775 687.555)" d="M607.77 686.55h2.01v2.01h-2.01z"/><path class="cls-27" transform="rotate(90 603.415 687.555)" d="M602.41 686.55h2.01v2.01h-2.01z"/><path class="cls-27" transform="rotate(90 598.045 687.555)" d="M597.04 686.55h2.01v2.01h-2.01z"/><path class="cls-27" transform="rotate(90 592.675 687.555)" d="M591.67 686.55h2.01v2.01h-2.01z"/><path class="cls-27" transform="rotate(90 614.145 682.185)" d="M613.14 681.18h2.01v2.01h-2.01z"/><path class="cls-27" transform="rotate(90 608.78 682.19)" d="M607.77 681.18h2.01v2.01h-2.01z"/><path class="cls-27" transform="rotate(90 603.41 682.19)" d="M602.41 681.18h2.01v2.01h-2.01z"/><path class="cls-27" transform="rotate(90 598.045 682.185)" d="M597.04 681.18h2.01v2.01h-2.01z"/><path class="cls-27" transform="rotate(90 592.68 682.19)" d="M591.67 681.18h2.01v2.01h-2.01z"/><path class="cls-27" transform="rotate(90 587.31 692.92)" d="M586.3 691.92h2.01v2.01h-2.01z"/><path class="cls-27" transform="rotate(90 587.315 687.555)" d="M586.3 686.55h2.01v2.01h-2.01z"/><path class="cls-27" transform="rotate(90 581.945 687.555)" d="M580.94 686.55h2.01v2.01h-2.01z"/><path class="cls-27" transform="rotate(90 587.31 682.19)" d="M586.3 681.18h2.01v2.01h-2.01z"/><path class="cls-27" transform="rotate(90 581.945 682.185)" d="M580.94 681.18h2.01v2.01h-2.01z"/><path class="cls-27" transform="rotate(90 576.575 682.185)" d="M575.57 681.18h2.01v2.01h-2.01z"/><path class="cls-27" transform="rotate(-90 576.58 698.29)" d="M575.57 697.28h2.01v2.01h-2.01z"/><path class="cls-27" transform="rotate(-90 576.575 692.925)" d="M575.57 691.92h2.01v2.01h-2.01z"/><path class="cls-27" transform="rotate(-90 576.575 687.555)" d="M575.57 686.55h2.01v2.01h-2.01z"/><path class="cls-27" transform="rotate(-90 581.94 698.29)" d="M580.94 697.28h2.01v2.01h-2.01z"/><path class="cls-27" transform="rotate(-90 581.945 692.925)" d="M580.94 691.92h2.01v2.01h-2.01z"/><path class="cls-27" transform="rotate(-90 587.31 698.29)" d="M586.3 697.28h2.01v2.01h-2.01z"/><path class="cls-27" transform="rotate(90 651.715 698.285)" d="M650.71 697.28h2.01v2.01h-2.01z"/><path class="cls-27" transform="rotate(90 646.35 698.29)" d="M645.34 697.28h2.01v2.01h-2.01z"/><path class="cls-27" transform="rotate(90 640.98 698.29)" d="M639.97 697.28h2.01v2.01h-2.01z"/><path class="cls-27" transform="rotate(90 635.615 698.285)" d="M634.61 697.28h2.01v2.01h-2.01z"/><path class="cls-27" transform="rotate(90 630.25 698.29)" d="M629.24 697.28h2.01v2.01h-2.01z"/><path class="cls-27" transform="rotate(90 651.715 692.925)" d="M650.71 691.92h2.01v2.01h-2.01z"/><path class="cls-27" transform="rotate(90 646.35 692.92)" d="M645.34 691.92h2.01v2.01h-2.01z"/><path class="cls-27" transform="rotate(90 640.98 692.92)" d="M639.97 691.92h2.01v2.01h-2.01z"/><path class="cls-27" transform="rotate(90 635.615 692.925)" d="M634.61 691.92h2.01v2.01h-2.01z"/><path class="cls-27" transform="rotate(90 630.25 692.92)" d="M629.24 691.92h2.01v2.01h-2.01z"/><path class="cls-27" transform="rotate(90 651.715 687.555)" d="M650.71 686.55h2.01v2.01h-2.01z"/><path class="cls-27" transform="rotate(90 646.345 687.555)" d="M645.34 686.55h2.01v2.01h-2.01z"/><path class="cls-27" transform="rotate(90 640.985 687.555)" d="M639.97 686.55h2.01v2.01h-2.01z"/><path class="cls-27" transform="rotate(90 635.615 687.555)" d="M634.61 686.55h2.01v2.01h-2.01z"/><path class="cls-27" transform="rotate(90 630.245 687.555)" d="M629.24 686.55h2.01v2.01h-2.01z"/><path class="cls-27" transform="rotate(90 651.715 682.185)" d="M650.71 681.18h2.01v2.01h-2.01z"/><path class="cls-27" transform="rotate(90 646.35 682.19)" d="M645.34 681.18h2.01v2.01h-2.01z"/><path class="cls-27" transform="rotate(90 640.98 682.19)" d="M639.97 681.18h2.01v2.01h-2.01z"/><path class="cls-27" transform="rotate(90 635.615 682.185)" d="M634.61 681.18h2.01v2.01h-2.01z"/><path class="cls-27" transform="rotate(90 630.245 682.185)" d="M629.24 681.18h2.01v2.01h-2.01z"/><path class="cls-27" transform="rotate(90 624.88 692.92)" d="M623.87 691.92h2.01v2.01h-2.01z"/><path class="cls-27" transform="rotate(90 624.88 687.55)" d="M623.87 686.55h2.01v2.01h-2.01z"/><path class="cls-27" transform="rotate(90 619.515 687.555)" d="M618.51 686.55h2.01v2.01h-2.01z"/><path class="cls-27" transform="rotate(90 624.88 682.19)" d="M623.87 681.18h2.01v2.01h-2.01z"/><path class="cls-27" transform="rotate(90 619.515 682.185)" d="M618.51 681.18h2.01v2.01h-2.01z"/><path class="cls-27" transform="rotate(90 614.145 682.185)" d="M613.14 681.18h2.01v2.01h-2.01z"/><path class="cls-27" transform="rotate(-90 614.145 698.285)" d="M613.14 697.28h2.01v2.01h-2.01z"/><path class="cls-27" transform="rotate(-90 614.145 692.925)" d="M613.14 691.92h2.01v2.01h-2.01z"/><path class="cls-27" transform="rotate(-90 614.145 687.555)" d="M613.14 686.55h2.01v2.01h-2.01z"/><path class="cls-27" transform="rotate(-90 619.51 698.29)" d="M618.51 697.28h2.01v2.01h-2.01z"/><path class="cls-27" transform="rotate(-90 619.51 692.92)" d="M618.51 691.92h2.01v2.01h-2.01z"/><path class="cls-27" transform="rotate(-90 624.88 698.29)" d="M623.87 697.28h2.01v2.01h-2.01z"/><path class="cls-27" transform="rotate(90 678.55 698.29)" d="M677.54 697.28h2.01v2.01h-2.01z"/><path class="cls-27" transform="rotate(90 673.18 698.29)" d="M672.18 697.28h2.01v2.01h-2.01z"/><path class="cls-27" transform="rotate(90 667.82 698.29)" d="M666.81 697.28h2.01v2.01h-2.01z"/><path class="cls-27" transform="rotate(90 678.55 692.92)" d="M677.54 691.92h2.01v2.01h-2.01z"/><path class="cls-27" transform="rotate(90 673.185 692.925)" d="M672.18 691.92h2.01v2.01h-2.01z"/><path class="cls-27" transform="rotate(90 667.815 692.925)" d="M666.81 691.92h2.01v2.01h-2.01z"/><path class="cls-27" transform="rotate(90 678.555 687.555)" d="M677.54 686.55h2.01v2.01h-2.01z"/><path class="cls-27" transform="rotate(90 673.185 687.555)" d="M672.18 686.55h2.01v2.01h-2.01z"/><path class="cls-27" transform="rotate(90 667.815 687.555)" d="M666.81 686.55h2.01v2.01h-2.01z"/><path class="cls-27" transform="rotate(90 678.55 682.19)" d="M677.54 681.18h2.01v2.01h-2.01z"/><path class="cls-27" transform="rotate(90 673.185 682.185)" d="M672.18 681.18h2.01v2.01h-2.01z"/><path class="cls-27" transform="rotate(90 667.815 682.185)" d="M666.81 681.18h2.01v2.01h-2.01z"/><path class="cls-27" transform="rotate(90 662.45 692.92)" d="M661.44 691.92h2.01v2.01h-2.01z"/><path class="cls-27" transform="rotate(90 662.445 687.555)" d="M661.44 686.55h2.01v2.01h-2.01z"/><path class="cls-27" transform="rotate(90 657.085 687.555)" d="M656.08 686.55h2.01v2.01h-2.01z"/><path class="cls-27" transform="rotate(90 662.45 682.19)" d="M661.44 681.18h2.01v2.01h-2.01z"/><path class="cls-27" transform="rotate(90 657.08 682.19)" d="M656.08 681.18h2.01v2.01h-2.01z"/><path class="cls-27" transform="rotate(90 651.715 682.185)" d="M650.71 681.18h2.01v2.01h-2.01z"/><path class="cls-27" transform="rotate(-90 651.715 698.285)" d="M650.71 697.28h2.01v2.01h-2.01z"/><path class="cls-27" transform="rotate(-90 651.715 692.925)" d="M650.71 691.92h2.01v2.01h-2.01z"/><path class="cls-27" transform="rotate(-90 651.715 687.555)" d="M650.71 686.55h2.01v2.01h-2.01z"/><path class="cls-27" transform="rotate(-90 657.08 698.29)" d="M656.08 697.28h2.01v2.01h-2.01z"/><path class="cls-27" transform="rotate(-90 657.08 692.92)" d="M656.08 691.92h2.01v2.01h-2.01z"/><path class="cls-27" transform="rotate(-90 662.45 698.29)" d="M661.44 697.28h2.01v2.01h-2.01z"/><path class="cls-27" transform="rotate(90 694.82 698.29)" d="M693.81 697.28h2.01v2.01h-2.01z"/><path class="cls-27" transform="rotate(90 694.815 692.925)" d="M693.81 691.92h2.01v2.01h-2.01z"/><path class="cls-27" transform="rotate(90 694.815 687.555)" d="M693.81 686.55h2.01v2.01h-2.01z"/><path class="cls-27" transform="rotate(90 694.815 682.185)" d="M693.81 681.18h2.01v2.01h-2.01z"/><path class="cls-27" transform="rotate(90 689.45 692.92)" d="M688.44 691.92h2.01v2.01h-2.01z"/><path class="cls-27" transform="rotate(90 689.445 687.555)" d="M688.44 686.55h2.01v2.01h-2.01z"/><path class="cls-27" transform="rotate(90 684.085 687.555)" d="M683.08 686.55h2.01v2.01h-2.01z"/><path class="cls-27" transform="rotate(90 689.45 682.19)" d="M688.44 681.18h2.01v2.01h-2.01z"/><path class="cls-27" transform="rotate(90 684.08 682.19)" d="M683.08 681.18h2.01v2.01h-2.01z"/><path class="cls-27" transform="rotate(-90 684.08 698.29)" d="M683.08 697.28h2.01v2.01h-2.01z"/><path class="cls-27" transform="rotate(-90 684.08 692.92)" d="M683.08 691.92h2.01v2.01h-2.01z"/><path class="cls-27" transform="rotate(-90 689.45 698.29)" d="M688.44 697.28h2.01v2.01h-2.01z"/><path class="cls-28" d="M36.57 585.99h118v5.97h-118z"/><path class="cls-4" d="M36.57 613.59h77.08v5.97H36.57zm0 27.59h90.8v5.97h-90.8z"/><path class="cls-5" d="M136.45 613.59h31.63v5.97h-31.63z"/><path class="cls-21" d="M36.57 599.79h49.99v5.97H36.57z"/><path class="cls-5" d="M50.93 654.93h49.99v5.97H50.93z"/><path class="cls-28" d="M50.83 682.1h36.73v5.97H50.83z"/><path class="cls-21" d="M102.05 627.39h25.32v5.97h-25.32z"/><path class="cls-29" d="M107.91 654.93h25.32v5.97h-25.32z"/><path class="cls-28" d="M68.4 627.39h25.32v5.97H68.4z"/><path class="cls-4" d="M64.4 668.67h49.73v5.97H64.4z"/><circle class="cls-28" cx="50.93" cy="573.56" r="2.93"/><circle class="cls-29" cx="39.97" cy="657.91" r="2.93"/><circle class="cls-21" cx="178.93" cy="616.57" r="2.93"/><path class="cls-5" transform="rotate(90 61.895 573.565)" d="M58.96 570.63h5.87v5.87h-5.87z"/><path class="cls-28" transform="rotate(90 139.38 644.17)" d="M136.45 641.24h5.87v5.87h-5.87z"/><path class="cls-4" d="M36.57 576.49l3.4-5.86 3.4 5.86h-6.8z"/><path class="cls-29" d="M120.57 619.51l3.4-5.87 3.4 5.87h-6.8z"/><path class="cls-21" d="M50.46 674.5l3.41-5.87 3.4 5.87h-6.81z"/><path class="cls-5" transform="rotate(90 97.8 602.72)" d="M94.87 599.79h5.87v5.87h-5.87z"/><path class="cls-9" d="M282 640.25h-42m239.81-41h-53"/><path class="cls-19" d="M30 90h60v59.94A60.06 60.06 0 0 1 30 210V90z" transform="rotate(-90 60 150)"/><path class="cls-27" transform="rotate(-90 56.17 145.58)" d="M55.16 144.57h2.01v2.01h-2.01z"/><path class="cls-27" transform="rotate(-90 61.54 145.58)" d="M60.53 144.57h2.01v2.01h-2.01z"/><path class="cls-27" transform="rotate(-90 66.905 145.575)" d="M65.9 144.57h2.01v2.01H65.9z"/><path class="cls-27" transform="rotate(-90 72.27 145.58)" d="M71.27 144.57h2.01v2.01h-2.01z"/><path class="cls-27" transform="rotate(-90 77.64 145.58)" d="M76.63 144.57h2.01v2.01h-2.01z"/><path class="cls-27" transform="rotate(-90 56.17 150.95)" d="M55.16 149.94h2.01v2.01h-2.01z"/><path class="cls-27" transform="rotate(-90 61.535 150.945)" d="M60.53 149.94h2.01v2.01h-2.01z"/><path class="cls-27" transform="rotate(-90 66.905 150.945)" d="M65.9 149.94h2.01v2.01H65.9z"/><path class="cls-27" transform="rotate(-90 72.275 150.945)" d="M71.27 149.94h2.01v2.01h-2.01z"/><path class="cls-27" transform="rotate(-90 77.635 150.945)" d="M76.63 149.94h2.01v2.01h-2.01z"/><path class="cls-27" transform="rotate(-90 56.17 156.31)" d="M55.16 155.31h2.01v2.01h-2.01z"/><path class="cls-27" transform="rotate(-90 61.535 156.315)" d="M60.53 155.31h2.01v2.01h-2.01z"/><path class="cls-27" transform="rotate(-90 66.905 156.315)" d="M65.9 155.31h2.01v2.01H65.9z"/><path class="cls-27" transform="rotate(-90 72.27 156.31)" d="M71.27 155.31h2.01v2.01h-2.01z"/><path class="cls-27" transform="rotate(-90 77.64 156.31)" d="M76.63 155.31h2.01v2.01h-2.01z"/><path class="cls-27" transform="rotate(-90 56.17 161.68)" d="M55.16 160.67h2.01v2.01h-2.01z"/><path class="cls-27" transform="rotate(-90 61.54 161.68)" d="M60.53 160.67h2.01v2.01h-2.01z"/><path class="cls-27" transform="rotate(-90 66.9 161.68)" d="M65.9 160.67h2.01v2.01H65.9z"/><path class="cls-27" transform="rotate(-90 72.27 161.68)" d="M71.27 160.67h2.01v2.01h-2.01z"/><path class="cls-27" transform="rotate(-90 77.64 161.68)" d="M76.63 160.67h2.01v2.01h-2.01z"/><path class="cls-27" transform="rotate(-90 18.6 145.58)" d="M17.59 144.57h2.01v2.01h-2.01z"/><path class="cls-27" transform="rotate(-90 23.97 145.58)" d="M22.96 144.57h2.01v2.01h-2.01z"/><path class="cls-27" transform="rotate(-90 29.335 145.575)" d="M28.33 144.57h2.01v2.01h-2.01z"/><path class="cls-27" transform="rotate(-90 34.7 145.58)" d="M33.7 144.57h2.01v2.01H33.7z"/><path class="cls-27" transform="rotate(-90 40.07 145.58)" d="M39.06 144.57h2.01v2.01h-2.01z"/><path class="cls-27" transform="rotate(-90 18.6 150.95)" d="M17.59 149.94h2.01v2.01h-2.01z"/><path class="cls-27" transform="rotate(-90 23.965 150.945)" d="M22.96 149.94h2.01v2.01h-2.01z"/><path class="cls-27" transform="rotate(-90 29.335 150.945)" d="M28.33 149.94h2.01v2.01h-2.01z"/><path class="cls-27" transform="rotate(-90 34.705 150.945)" d="M33.7 149.94h2.01v2.01H33.7z"/><path class="cls-27" transform="rotate(-90 40.07 150.95)" d="M39.06 149.94h2.01v2.01h-2.01z"/><path class="cls-27" transform="rotate(-90 18.6 156.31)" d="M17.59 155.31h2.01v2.01h-2.01z"/><path class="cls-27" transform="rotate(-90 23.965 156.315)" d="M22.96 155.31h2.01v2.01h-2.01z"/><path class="cls-27" transform="rotate(-90 29.335 156.315)" d="M28.33 155.31h2.01v2.01h-2.01z"/><path class="cls-27" transform="rotate(-90 34.705 156.315)" d="M33.7 155.31h2.01v2.01H33.7z"/><path class="cls-27" transform="rotate(-90 40.07 156.31)" d="M39.06 155.31h2.01v2.01h-2.01z"/><path class="cls-27" transform="rotate(-90 18.6 161.68)" d="M17.59 160.67h2.01v2.01h-2.01z"/><path class="cls-27" transform="rotate(-90 23.97 161.68)" d="M22.96 160.67h2.01v2.01h-2.01z"/><path class="cls-27" transform="rotate(-90 29.335 161.685)" d="M28.33 160.67h2.01v2.01h-2.01z"/><path class="cls-27" transform="rotate(-90 34.7 161.68)" d="M33.7 160.67h2.01v2.01H33.7z"/><path class="cls-27" transform="rotate(-90 40.07 161.68)" d="M39.06 160.67h2.01v2.01h-2.01z"/><path class="cls-27" transform="rotate(-90 45.435 150.945)" d="M44.43 149.94h2.01v2.01h-2.01z"/><path class="cls-27" transform="rotate(-90 45.435 156.315)" d="M44.43 155.31h2.01v2.01h-2.01z"/><path class="cls-27" transform="rotate(-90 50.805 156.315)" d="M49.8 155.31h2.01v2.01H49.8z"/><path class="cls-27" transform="rotate(-90 45.44 161.68)" d="M44.43 160.67h2.01v2.01h-2.01z"/><path class="cls-27" transform="rotate(-90 50.8 161.68)" d="M49.8 160.67h2.01v2.01H49.8z"/><path class="cls-27" transform="rotate(-90 56.17 161.68)" d="M55.16 160.67h2.01v2.01h-2.01z"/><path class="cls-27" transform="rotate(90 56.17 145.58)" d="M55.16 144.57h2.01v2.01h-2.01z"/><path class="cls-27" transform="rotate(90 56.17 150.95)" d="M55.16 149.94h2.01v2.01h-2.01z"/><path class="cls-27" transform="rotate(90 56.17 156.31)" d="M55.16 155.31h2.01v2.01h-2.01z"/><path class="cls-27" transform="rotate(90 50.8 145.58)" d="M49.8 144.57h2.01v2.01H49.8z"/><path class="cls-27" transform="rotate(90 50.805 150.945)" d="M49.8 149.94h2.01v2.01H49.8z"/><path class="cls-27" transform="rotate(90 45.44 145.58)" d="M44.43 144.57h2.01v2.01h-2.01z"/><path class="cls-8" d="M239.56 119.45h-65"/><circle class="cls-15" cx="175.45" cy="119.45" r="2.85"/><circle class="cls-15" cx="153.45" cy="146.45" r="2.85"/><path class="cls-8" d="M199.06 119.75v21a6 6 0 0 1-6 6h-38"/><path class="cls-30" d="M660 180v120"/><path class="cls-15" d="M133.65 47.94a7.6 7.6 0 0 0-7.27 7.65v9.32a.4.4 0 0 0 .4.4H129a.4.4 0 0 0 .4-.4v-9.34a4.53 4.53 0 0 1 4.25-4.57 4.45 4.45 0 0 1 4.67 4.44v9.48a.4.4 0 0 0 .4.4H141a.4.4 0 0 0 .4-.4v-9.48a7.51 7.51 0 0 0-7.75-7.5zm19.06.06A8.68 8.68 0 1 0 158 63.3v1.62a.4.4 0 0 0 .4.4h2.26a.4.4 0 0 0 .4-.4v-8a8.79 8.79 0 0 0-8.35-8.92zm-.38 14.29A5.62 5.62 0 1 1 158 56.7a5.63 5.63 0 0 1-5.67 5.62zM172.64 48a8.68 8.68 0 1 0 5.24 15.27v3.43a5.74 5.74 0 0 1-5.73 5.77 5.58 5.58 0 0 1-4.48-2.37.39.39 0 0 0-.53-.1l-1.93 1.19a.4.4 0 0 0-.12.57 8.62 8.62 0 0 0 7 3.76 8.82 8.82 0 0 0 8.85-8.85v-9.8a8.79 8.79 0 0 0-8.3-8.87zm-.38 14.29a5.62 5.62 0 1 1 5.62-5.62 5.63 5.63 0 0 1-5.62 5.65zM99.81 48a8.68 8.68 0 1 0 5.24 15.27v3.43a5.74 5.74 0 0 1-5.73 5.77 5.58 5.58 0 0 1-4.48-2.37.39.39 0 0 0-.53-.1l-1.91 1.22a.4.4 0 0 0-.12.57 8.62 8.62 0 0 0 7 3.76 8.82 8.82 0 0 0 8.85-8.85v-9.83A8.79 8.79 0 0 0 99.81 48zm-.38 14.29a5.62 5.62 0 1 1 5.62-5.62 5.63 5.63 0 0 1-5.61 5.65zM87.52 48.14h-2.26a.4.4 0 0 0-.39.4v9A4.45 4.45 0 0 1 80.21 62 4.53 4.53 0 0 1 76 57.46v-8.88a.4.4 0 0 0-.4-.4h-2.27a.4.4 0 0 0-.4.4v8.85a7.6 7.6 0 0 0 7.27 7.65 7.51 7.51 0 0 0 7.73-7.49v-9.05a.4.4 0 0 0-.41-.4zm30.3 7.1c-2.21-.62-3.56-1.08-3.56-2.27 0-1.73 1.9-2.36 3.17-2.36a5.92 5.92 0 0 1 3.48 1 .4.4 0 0 0 .54-.12l1-1.63a.4.4 0 0 0-.13-.56 9.73 9.73 0 0 0-5-1.39c-2.87 0-5.84 1.89-5.84 5.06s2.87 4 5.41 4.7 3.85 1.15 3.85 2.66-1.43 2.43-3.31 2.43a7.09 7.09 0 0 1-4.31-1.6.4.4 0 0 0-.55.06l-1.25 1.52a.4.4 0 0 0 .06.56 9.56 9.56 0 0 0 6.19 2.13c3.44 0 5.94-2.19 5.94-5.21.01-3.4-3.15-4.28-5.69-4.98zm-55.07-7.16a8.65 8.65 0 0 0-6.64 2v-9.24a.4.4 0 0 0-.6-.34l-2.26 1.38a.4.4 0 0 0-.19.34v14.3a8.79 8.79 0 0 0 8.3 8.85 8.68 8.68 0 0 0 1.39-17.29zm-1 14.24a5.62 5.62 0 1 1 5.62-5.62 5.63 5.63 0 0 1-5.63 5.62z"/><path class="cls-30" d="M540 420a60 60 0 0 0 60 60m0 0a60 60 0 0 1 60 60"/><circle class="cls-31" cx="472.67" cy="35.16" r="3.06"/><circle class="cls-31" cx="437.34" cy="126.33" r="3.06"/><circle class="cls-31" cx="523.34" cy="121.98" r="3.06"/><circle class="cls-31" cx="300.99" cy="33.18" r="3.05"/><circle class="cls-31" cx="567.19" cy="55.83" r="3.06"/></svg>